<?xml version="1.0" encoding="utf-8"?>
<!-- Generator: Adobe Illustrator 21.1.0, SVG Export Plug-In . SVG Version: 6.00 Build 0)  -->
<svg version="1.1" id="svg2" xmlns:svg="http://www.w3.org/2000/svg"
	 xmlns="http://www.w3.org/2000/svg" xmlns:xlink="http://www.w3.org/1999/xlink" x="0px" y="0px" viewBox="0 0 22 22"
	 style="enable-background:new 0 0 22 22;" xml:space="preserve">
<style type="text/css">
	.st0{fill:#FFFFFF;stroke:#F89E3E;stroke-width:0.2;stroke-miterlimit:10;}
	.st1{fill:#F89E3E;stroke:#F89E3E;stroke-width:0.2;stroke-miterlimit:10;}
	.st2{fill:#FFBF55;stroke:#F89E3E;stroke-width:0.2;stroke-miterlimit:10;}
</style>
<g>
	<g>
		<path class="st0" d="M5.5,7.9C3.9,8.2,3.1,8.6,3.1,9.1v0c0,0.5,0.8,0.9,2.4,1.2c1.5,0.4,3.4,0.5,5.7,0.5s4.1-0.2,5.7-0.5
			c1.4-0.3,2.2-0.7,2.3-1.1l0-0.2c-0.1-0.5-0.9-0.9-2.4-1.2c-1.6-0.4-3.5-0.5-5.7-0.5S7,7.5,5.5,7.9z"/>
		<path class="st1" d="M11.1,11c-2.2,0-4.1-0.2-5.7-0.5C4,10.1,3.1,9.7,3.1,9.2v0c0-0.5,0.8-1,2.4-1.3C7,7.5,8.9,7.3,11.1,7.3
			c2.2,0,4.1,0.2,5.7,0.5c1.5,0.3,2.3,0.7,2.4,1.2l0,0l0,0.2c-0.1,0.4-1,0.8-2.3,1.1C15.2,10.8,13.3,11,11.1,11z M11.1,7.3
			C8.9,7.3,7,7.5,5.5,7.9l0,0C4,8.2,3.1,8.6,3.1,9.1v0c0,0.5,0.9,0.9,2.3,1.2c1.5,0.4,3.4,0.5,5.7,0.5c2.2,0,4.1-0.2,5.7-0.5
			c1.3-0.3,2.2-0.6,2.3-1.1l0-0.2c-0.1-0.5-0.9-0.9-2.3-1.2C15.2,7.5,13.3,7.3,11.1,7.3z"/>
	</g>
	<g>
		<path class="st2" d="M5.5,10.4c-1.6-0.3-2.4-0.8-2.4-1.2v10.3c0,0.5,0.8,1,2.4,1.3c1.5,0.4,3.4,0.5,5.7,0.5s4.1-0.2,5.7-0.5
			c1.5-0.3,2.4-0.8,2.4-1.3c0,0,0-0.1,0-0.1v-10c-0.1,0.4-0.9,0.8-2.3,1.1c-1.6,0.4-3.5,0.5-5.7,0.5S7,10.8,5.5,10.4z"/>
		<path class="st2" d="M11.1,21.3c-2.2,0-4.1-0.2-5.7-0.5c-1.5-0.3-2.4-0.8-2.4-1.3V9.2h0c0,0.5,0.9,0.9,2.3,1.2l0,0
			c1.5,0.4,3.4,0.5,5.7,0.5c2.2,0,4.1-0.2,5.7-0.5c1.3-0.3,2.2-0.6,2.3-1.1l0-0.1v10.1c0,0,0,0.1,0,0.1c0,0.5-0.8,1-2.4,1.3
			C15.2,21.1,13.3,21.3,11.1,21.3z M3.1,9.3v10.1c0,0.5,0.8,1,2.3,1.3c1.5,0.4,3.4,0.5,5.7,0.5c2.2,0,4.1-0.2,5.7-0.5
			c1.5-0.3,2.3-0.8,2.3-1.3c0,0,0-0.1,0-0.1l0,0V9.4c-0.2,0.4-1,0.8-2.3,1c-1.6,0.4-3.5,0.5-5.7,0.5c-2.2,0-4.1-0.2-5.7-0.5
			C4.1,10.2,3.3,9.8,3.1,9.3z"/>
	</g>
	<g>
		<path class="st0" d="M19.1,9.3c0-0.1,0-0.1,0-0.2v0L19.1,9.3z"/>
		<path class="st1" d="M19.1,9.4l0.1-0.3l0,0v0C19.2,9.2,19.2,9.2,19.1,9.4L19.1,9.4z"/>
	</g>
	<g>
		<path class="st1" d="M11.1,21.7c-2.2,0-4.2-0.2-5.7-0.6c-0.8-0.2-1.4-0.4-1.9-0.6c-0.5-0.3-0.8-0.6-0.8-1.1V9.1
			c0-0.2,0.2-0.4,0.4-0.4s0.4,0.2,0.4,0.4v10.3c0,0.1,0.4,0.5,2,0.9c0,0,0,0,0,0c1.5,0.4,3.4,0.5,5.6,0.5c2.2,0,4.1-0.2,5.6-0.5
			c0,0,0,0,0,0c1.5-0.3,2-0.7,2-0.8c0-0.1,0-0.1,0-0.2v-10c0,0,0-0.1,0-0.1l0-0.2c0-0.2,0.3-0.4,0.5-0.3c0.2,0,0.4,0.3,0.3,0.5
			l0,0.2v9.8c0,0.1,0,0.2,0,0.2c0,0.4-0.3,0.8-0.8,1.1c-0.4,0.2-1.1,0.4-1.9,0.6C15.3,21.5,13.4,21.7,11.1,21.7z"/>
	</g>
	<g>
		<path class="st1" d="M11.1,11.3c-2.2,0-4.2-0.2-5.7-0.6c-1.8-0.4-2.7-0.9-2.7-1.6c0,0,0,0,0,0c0,0,0,0,0,0c0-0.4,0.3-0.8,0.8-1.1
			c0.4-0.2,1.1-0.4,1.9-0.6c1.6-0.4,3.5-0.6,5.7-0.6c2.2,0,4.2,0.2,5.8,0.6c1.7,0.4,2.5,0.8,2.7,1.5c0,0,0,0,0,0.1v0
			c0,0.1,0,0.2-0.1,0.3c-0.2,0.6-1.1,1-2.6,1.3C15.3,11.2,13.4,11.3,11.1,11.3z M3.5,9.2c0,0.1,0.4,0.5,2,0.8c0,0,0,0,0,0
			c1.5,0.4,3.4,0.5,5.6,0.5c2.2,0,4.1-0.2,5.6-0.5c0,0,0,0,0,0c1.5-0.3,2-0.7,2-0.8c0,0,0,0,0-0.1c0,0,0,0,0,0c0-0.1-0.3-0.5-2-0.9
			c0,0,0,0,0,0c-1.5-0.4-3.4-0.5-5.6-0.5c-2.2,0-4.1,0.2-5.6,0.5c0,0,0,0,0,0C3.9,8.6,3.5,9,3.5,9.2C3.5,9.1,3.5,9.2,3.5,9.2
			C3.5,9.2,3.5,9.2,3.5,9.2L3.5,9.2z"/>
	</g>
</g>
<g>
	<g>
		<path class="st0" d="M8.4,5.8c0-0.4,0.1-0.8,0.3-1.1C8.8,4.4,9,4.2,9.2,3.9c0.5-0.5,1.2-0.8,1.9-0.8c0.7,0,1.4,0.3,1.9,0.8
			c0.2,0.2,0.4,0.5,0.5,0.8c0.1,0.3,0.2,0.7,0.3,1.1l0,3c0.8,0.3,1.6,0.3,2.4,0v-3c0-0.4,0-0.7-0.1-1C16,3.8,15.5,3,14.8,2.2
			c-1-1-2.2-1.5-3.6-1.5c-1.4,0-2.6,0.5-3.7,1.5C6.8,3,6.4,3.8,6.1,4.7c0,0.4-0.1,0.7-0.1,1v3c0.8,0.3,1.6,0.3,2.4,0V5.8z"/>
		<path class="st1" d="M15.1,9c-0.4,0-0.8-0.1-1.2-0.2l0,0l0-3c-0.1-0.4-0.1-0.8-0.3-1.1c-0.1-0.3-0.3-0.6-0.5-0.8
			c-0.5-0.5-1.2-0.8-1.9-0.8c-0.7,0-1.4,0.3-1.9,0.8C9,4.1,8.8,4.4,8.7,4.7C8.5,5,8.4,5.4,8.4,5.8v3l0,0C7.6,9.1,6.8,9.1,6,8.8l0,0
			v-3c0-0.3,0-0.6,0.1-0.9l0-0.1c0.2-0.9,0.7-1.8,1.4-2.5c1.1-1,2.3-1.5,3.7-1.5c1.4,0,2.6,0.5,3.6,1.5c0.7,0.7,1.2,1.6,1.4,2.5
			c0.1,0.4,0.1,0.7,0.1,1v3l0,0C15.9,9,15.5,9,15.1,9z M13.9,8.8c0.8,0.3,1.6,0.3,2.4,0v-3c0-0.3,0-0.7-0.1-1
			c-0.2-0.9-0.7-1.8-1.4-2.5c-1-1-2.2-1.5-3.6-1.5c-1.4,0-2.6,0.5-3.7,1.5C6.9,3,6.4,3.8,6.2,4.7l0,0.1c0,0.3-0.1,0.6-0.1,0.9v3
			c0.8,0.3,1.6,0.3,2.3,0v-3c0-0.4,0.1-0.8,0.3-1.1C8.8,4.4,9,4.1,9.2,3.9c0.6-0.5,1.2-0.8,2-0.8c0.7,0,1.4,0.3,2,0.8
			c0.2,0.2,0.4,0.5,0.5,0.8c0.1,0.3,0.2,0.7,0.3,1.1L13.9,8.8z"/>
	</g>
	<g>
		<path class="st1" d="M7.2,9.4c-0.4,0-0.9-0.1-1.3-0.2C5.8,9.1,5.6,9,5.6,8.8v-3c0-0.4,0-0.7,0.1-1l0-0.1c0,0,0,0,0,0
			C6,3.6,6.5,2.7,7.2,2c0,0,0,0,0,0c1.1-1.1,2.4-1.6,3.9-1.6c1.5,0,2.8,0.5,3.9,1.6c0.8,0.8,1.3,1.7,1.5,2.7
			c0.1,0.4,0.1,0.8,0.1,1.1v3c0,0.2-0.1,0.3-0.3,0.4c-0.9,0.3-1.8,0.3-2.7,0c-0.2-0.1-0.3-0.2-0.3-0.4l0-3c0-0.4-0.1-0.7-0.2-0.9
			c-0.1-0.3-0.3-0.5-0.5-0.6c-0.5-0.4-1-0.7-1.7-0.7c-0.6,0-1.2,0.2-1.7,0.7C9.3,4.4,9.2,4.6,9,4.9c0,0,0,0,0,0
			C8.9,5.1,8.8,5.5,8.8,5.8v3c0,0.2-0.1,0.3-0.3,0.4C8.1,9.3,7.7,9.4,7.2,9.4z M6.5,8.5c0.5,0.1,1,0.1,1.6,0V5.8
			c0-0.5,0.1-0.9,0.3-1.3c0.2-0.3,0.4-0.6,0.6-0.9c0,0,0,0,0,0c0.6-0.6,1.4-0.9,2.2-0.9c0.8,0,1.6,0.3,2.2,0.9c0,0,0,0,0,0
			c0.2,0.2,0.4,0.5,0.6,0.9c0,0,0,0,0,0c0.2,0.4,0.3,0.9,0.3,1.2c0,0,0,0,0,0.1l0,2.7c0.5,0.1,1.1,0.1,1.6,0V5.8
			c0-0.3,0-0.6-0.1-0.9c0,0,0,0,0,0c-0.2-0.8-0.6-1.6-1.2-2.3c-0.9-0.9-2-1.4-3.3-1.4c-1.3,0-2.4,0.4-3.4,1.4C7.2,3.2,6.8,4,6.5,4.8
			l0,0.1c0,0.3-0.1,0.6-0.1,0.9V8.5z M8.7,4.7L8.7,4.7L8.7,4.7z"/>
	</g>
</g>
</svg>
