<?xml version="1.0" encoding="utf-8"?>
<!-- Generator: Adobe Illustrator 21.1.0, SVG Export Plug-In . SVG Version: 6.00 Build 0)  -->
<svg version="1.1"
	 id="svg11300" inkscape:export-filename="c:\Tango\git\view-refresh.png" inkscape:export-xdpi="90.000000" inkscape:export-ydpi="90.000000" inkscape:output_extension="org.inkscape.output.svg.inkscape" inkscape:r_cx="true" inkscape:r_cy="true" inkscape:version="0.45" sodipodi:docbase="/home/dobey/Projects/gnome-icon-theme/scalable/actions" sodipodi:docname="view-refresh.svg" sodipodi:version="0.32" xmlns:cc="http://web.resource.org/cc/" xmlns:dc="http://purl.org/dc/elements/1.1/" xmlns:inkscape="http://www.inkscape.org/namespaces/inkscape" xmlns:rdf="http://www.w3.org/1999/02/22-rdf-syntax-ns#" xmlns:sodipodi="http://sodipodi.sourceforge.net/DTD/sodipodi-0.dtd" xmlns:svg="http://www.w3.org/2000/svg"
	 xmlns="http://www.w3.org/2000/svg" xmlns:xlink="http://www.w3.org/1999/xlink" x="0px" y="0px" viewBox="0 0 48 48"
	 style="enable-background:new 0 0 48 48;" xml:space="preserve">
<style type="text/css">
	.st0{fill:#F89E3E;}
</style>
<sodipodi:namedview  bordercolor="#e8e8e8" borderlayer="true" borderopacity="0.86666667" fill="#729fcf" height="48px" id="base" inkscape:current-layer="layer1" inkscape:cx="48.628749" inkscape:cy="21.704614" inkscape:document-units="px" inkscape:grid-bbox="true" inkscape:pageopacity="0.0" inkscape:pageshadow="2" inkscape:showpageshadow="false" inkscape:window-height="938" inkscape:window-width="892" inkscape:window-x="374" inkscape:window-y="37" inkscape:zoom="1" pagecolor="#ffffff" showgrid="true" stroke="#3465a4" width="48px">
	</sodipodi:namedview>
<path class="st0" d="M0.6,23c0.1-0.9,0.2-1.8,0.4-2.7c0.4-2.6,1.3-5,2.5-7.3c1.7-3.1,4-5.7,6.9-7.8c2.7-2,5.8-3.3,9.1-3.9
	c6.1-1.2,11.8-0.1,17.2,3.2c0.2,0.1,0.3,0.2,0.6,0.3c0.4-0.6,0.9-1.3,1.3-1.9c0.2-0.3,0.4-0.8,0.8-0.6c0.2,0.1,0.4,0.5,0.5,0.8
	c0.6,1.9,1.1,3.8,1.6,5.7c0.3,1-0.1,1.5-1.2,1.6c-1.9,0.2-3.9,0.3-5.8,0.5c0,0-0.1,0-0.1,0c-0.3-0.1-0.7-0.1-0.8-0.2
	c-0.1-0.2,0-0.6,0.2-0.8c0.4-0.7,0.9-1.3,1.4-2c-0.5-0.3-0.9-0.6-1.4-0.8c-3.5-1.9-7.3-2.8-11.4-2.4c-5.6,0.6-10.1,3-13.6,7.4
	c-2.7,3.4-4.2,7.4-4.3,11.7c-0.1,7,2.8,12.7,8.5,16.8c2.3,1.6,4.8,2.6,7.5,3.1c1.1,0.2,1.7,1,1.7,2c-0.1,1.2-1.1,2-2.3,1.8
	c-3.6-0.7-6.9-2.1-9.8-4.3c-3.3-2.4-5.8-5.5-7.5-9.3c-1.1-2.5-1.8-5.1-2-7.8c0-0.1-0.1-0.3-0.1-0.4C0.6,24.8,0.6,23.9,0.6,23z"/>
<path class="st0" d="M21.4,18c0-2.4,0-4.9,0-7.3c0-0.9,0.6-1.6,1.4-1.6c0.9-0.1,1.6,0.6,1.6,1.5c0,0.7,0,1.5,0,2.2
	c0,3.6,0,7.1,0,10.7c0,0.4,0.1,0.5,0.4,0.7c3.9,2,7.8,4,11.6,6c0.8,0.4,1.2,1,1,1.8c-0.2,0.9-1.1,1.4-1.9,1.1
	c-0.2-0.1-0.4-0.2-0.5-0.2c-4.4-2.3-8.8-4.5-13.2-6.8c-0.3-0.2-0.4-0.3-0.4-0.7C21.4,22.9,21.4,20.4,21.4,18z"/>
<path class="st0" d="M38.6,38.3C38.6,38.3,38.6,38.3,38.6,38.3c0-1.2,1.6-2.9,2.7-2.9c1.4,0,2.4,1.6,1.6,2.8c-0.3,0.5-0.7,1-1.2,1.5
	c-0.6,0.6-1.3,0.6-2,0.3C39.1,39.7,38.6,39.1,38.6,38.3z"/>
<path class="st0" d="M31.1,45.3c0,0.8-0.5,1.5-1.3,1.8c-0.6,0.2-1.1,0.3-1.7,0.4c-1,0.1-1.8-0.5-2-1.5c-0.2-0.9,0.3-1.9,1.2-2.1
	c0.5-0.2,1.1-0.3,1.6-0.4C30.2,43.3,31.1,44.1,31.1,45.3z"/>
<path class="st0" d="M46.5,31.1c-0.2,0.5-0.4,1.3-0.9,2c-0.4,0.7-1.4,0.9-2.2,0.6c-0.8-0.4-1.3-1.2-1.1-2c0.1-0.6,0.4-1.3,0.6-1.9
	c0.4-0.8,1.3-1.1,2.1-0.9C46,29.1,46.6,29.9,46.5,31.1z"/>
<path class="st0" d="M44.3,19.4c-0.6,0-1.2-0.4-1.5-1.1c-0.2-0.5-0.4-1-0.5-1.5c-0.3-0.9,0.2-1.9,1.1-2.2c0.9-0.4,1.9-0.1,2.3,0.8
	c0.3,0.6,0.6,1.3,0.7,2C46.7,18.4,45.7,19.4,44.3,19.4z"/>
<path class="st0" d="M47.6,24.2c0,0.4,0,0.7-0.1,1.1c-0.2,0.9-1.1,1.5-1.9,1.4c-1-0.1-1.7-0.8-1.8-1.8c0-0.5,0-0.9,0-1.4
	c0-1.1,0.8-1.9,1.8-1.9c1,0,1.8,0.8,1.9,1.8C47.6,23.7,47.5,23.9,47.6,24.2C47.5,24.2,47.6,24.2,47.6,24.2z"/>
<path class="st0" d="M35.1,44.9c-1,0-1.8-0.5-2-1.2c-0.3-0.8,0-1.6,0.6-2.1c0.5-0.3,1-0.7,1.5-0.9c0.7-0.4,1.6-0.2,2.1,0.4
	c0.5,0.6,0.7,1.5,0.3,2.2C37,44.2,36,44.6,35.1,44.9z"/>
</svg>
