<?xml version="1.0" encoding="utf-8"?>
<!-- Generator: Adobe Illustrator 21.1.0, SVG Export Plug-In . SVG Version: 6.00 Build 0)  -->
<svg version="1.1"
	 id="svg2" inkscape:output_extension="org.inkscape.output.svg.inkscape" inkscape:version="0.45" sodipodi:docbase="/home/dobey/Projects/gnome-icon-theme/scalable/actions" sodipodi:docname="system-run.svg" sodipodi:version="0.32" xmlns:cc="http://web.resource.org/cc/" xmlns:dc="http://purl.org/dc/elements/1.1/" xmlns:inkscape="http://www.inkscape.org/namespaces/inkscape" xmlns:rdf="http://www.w3.org/1999/02/22-rdf-syntax-ns#" xmlns:sodipodi="http://sodipodi.sourceforge.net/DTD/sodipodi-0.dtd" xmlns:svg="http://www.w3.org/2000/svg"
	 xmlns="http://www.w3.org/2000/svg" xmlns:xlink="http://www.w3.org/1999/xlink" x="0px" y="0px" viewBox="0 0 48 48"
	 style="enable-background:new 0 0 48 48;" xml:space="preserve">
<style type="text/css">
	.st0{fill:#F89E3E;}
	.st1{font-family:'BMDoHyeon';}
	.st2{font-size:21.5517px;}
</style>
<g>
	
		<sodipodi:namedview  bordercolor="#666666" borderlayer="true" borderopacity="1.0" gridempspacing="2" gridspacingx="0.5px" gridspacingy="0.5px" gridtolerance="10000" height="48px" id="base" inkscape:current-layer="layer1" inkscape:cx="31.777116" inkscape:cy="6.2374543" inkscape:document-units="px" inkscape:grid-bbox="true" inkscape:grid-points="false" inkscape:guide-bbox="false" inkscape:object-paths="false" inkscape:pageopacity="0.0" inkscape:pageshadow="2" inkscape:showpageshadow="false" inkscape:window-height="738" inkscape:window-width="1051" inkscape:window-x="263" inkscape:window-y="212" inkscape:zoom="1" pagecolor="#ffffff" showborder="false" showgrid="false" width="48px">
		</sodipodi:namedview>
	<path class="st0" d="M27.1,2.8c0.1,1.8,0.1,3.5,0.2,5.3C17.3,6.7,10.4,13.1,8.4,19.2c-2.4,7.2,0.5,14.5,5,18.4c0.8-1,1.7-2,2.7-3.1
		c0.5,3.5,1,6.8,1.6,10.1c-3.4,0-6.8,0-10.3,0c0.9-1.1,1.7-2,2.6-3c-4.8-4.5-7.5-10-7.7-16.7c-0.1-4.4,1-8.5,3.3-12.2
		C10.7,4.5,20.1,1.9,27.1,2.8z"/>
	<path class="st0" d="M20.9,46c-0.1-1.7-0.1-3.5-0.2-5.2c9.5,0.6,16.4-2.9,19.1-12.3c2-6.7-0.3-12.4-5.1-17.4c-0.9,1-1.8,2-2.7,3.1
		c-0.5-3.5-1-6.8-1.6-10.1c3.4,0,6.8,0,10.3,0c-0.9,1-1.7,2-2.6,3c4.8,4.5,7.4,10,7.7,16.6c0.2,4.8-1.1,9.3-3.9,13.2
		C36.3,44.9,26.8,46.9,20.9,46z"/>
</g>
<text transform="matrix(1 0 0 1 17.707 31.3298)" class="st0 st1 st2">?</text>
</svg>
