<?xml version="1.0" encoding="utf-8"?>
<!-- Generator: Adobe Illustrator 21.1.0, SVG Export Plug-In . SVG Version: 6.00 Build 0)  -->
<svg version="1.1"
	 id="svg2" inkscape:version="0.47 r22583" sodipodi:docname="unlock.svg" xmlns:cc="http://creativecommons.org/ns#" xmlns:dc="http://purl.org/dc/elements/1.1/" xmlns:inkscape="http://www.inkscape.org/namespaces/inkscape" xmlns:rdf="http://www.w3.org/1999/02/22-rdf-syntax-ns#" xmlns:sodipodi="http://sodipodi.sourceforge.net/DTD/sodipodi-0.dtd" xmlns:svg="http://www.w3.org/2000/svg"
	 xmlns="http://www.w3.org/2000/svg" xmlns:xlink="http://www.w3.org/1999/xlink" x="0px" y="0px" viewBox="0 0 22 22"
	 style="enable-background:new 0 0 22 22;" xml:space="preserve">
<style type="text/css">
	.st0{fill:#FFFFFF;}
	.st1{fill:#FFBF55;stroke:#F89E3E;stroke-width:0.2;stroke-miterlimit:10;}
	.st2{fill:#F89E3E;}
</style>
<g>
	
		<sodipodi:namedview  bordercolor="#666666" borderopacity="1" gridtolerance="10" guidetolerance="10" id="namedview56" inkscape:current-layer="svg2" inkscape:cx="11" inkscape:cy="11.670999" inkscape:pageopacity="0" inkscape:pageshadow="2" inkscape:window-height="722" inkscape:window-maximized="0" inkscape:window-width="989" inkscape:window-x="0" inkscape:window-y="0" inkscape:zoom="10.727273" objecttolerance="10" pagecolor="#ffffff" showgrid="false">
		</sodipodi:namedview>
	<defs>
		
		
			<inkscape:perspective  id="perspective60" inkscape:persp3d-origin="11 : 7.3333333 : 1" inkscape:vp_x="0 : 11 : 1" inkscape:vp_y="0 : 1000 : 0" inkscape:vp_z="22 : 11 : 1" sodipodi:type="inkscape:persp3d">
			</inkscape:perspective>
	</defs>
	<path class="st0" d="M5.9,9.5c-1.4,0.3-2.1,0.7-2.1,1.1v0c0,0.4,0.7,0.8,2.1,1.1c1.4,0.3,3,0.5,5,0.5s3.6-0.2,5-0.5
		c1.2-0.2,1.9-0.6,2-1l0-0.2c-0.1-0.4-0.8-0.8-2.1-1.1c-1.4-0.3-3.1-0.5-5-0.5S7.2,9.2,5.9,9.5z"/>
	<path class="st1" d="M5.9,11.8c-1.4-0.3-2.1-0.7-2.1-1.1v9c0,0.4,0.7,0.8,2.1,1.1c1.4,0.3,3,0.5,5,0.5s3.6-0.2,5-0.5
		c1.4-0.3,2.1-0.7,2.1-1.1c0,0,0-0.1,0-0.1v-8.8c-0.1,0.4-0.8,0.7-2,1c-1.4,0.3-3.1,0.5-5,0.5S7.2,12.1,5.9,11.8z"/>
	<path class="st2" d="M17.9,10.8c0-0.1,0-0.1,0-0.2v0L17.9,10.8z"/>
	<path class="st2" d="M10.8,21.8c-2,0-3.7-0.2-5.1-0.5c-1.6-0.3-2.4-0.8-2.4-1.6v-9c0-0.3,0.2-0.5,0.5-0.5s0.5,0.2,0.5,0.5v9.1l0,0
		c0,0,0.2,0.3,1.7,0.6c1.3,0.3,3,0.5,4.9,0.5c1.9,0,3.6-0.2,4.9-0.5c1.2-0.3,1.6-0.5,1.7-0.6c0,0,0-0.1,0-0.1l0-9.1
		c0-0.3,0.3-0.4,0.6-0.4c0.3,0.1,0.4,0.3,0.4,0.6l0,0.2l0,8.6c0,0.1,0,0.2,0,0.2c0,0.7-0.8,1.2-2.4,1.6
		C14.5,21.6,12.8,21.8,10.8,21.8z M18.4,19.6L18.4,19.6L18.4,19.6z"/>
	<path class="st2" d="M10.8,12.7c-2,0-3.7-0.2-5.1-0.5c-1.6-0.3-2.4-0.8-2.4-1.5c0,0,0,0,0,0c0,0,0,0,0,0c0-0.7,0.8-1.3,2.4-1.6
		c1.4-0.3,3.1-0.5,5.1-0.5c2,0,3.7,0.2,5.1,0.5c1.6,0.3,2.3,0.8,2.4,1.5c0,0,0,0.1,0,0.1c0,0.1,0,0.2-0.1,0.4
		c-0.2,0.5-1,0.9-2.4,1.2C14.5,12.6,12.8,12.7,10.8,12.7z M4.3,10.7c0,0.1,0.3,0.4,1.7,0.6c1.3,0.3,3,0.5,4.9,0.5
		c1.9,0,3.6-0.2,4.9-0.5c1.2-0.2,1.6-0.6,1.7-0.6c0,0,0,0,0,0c0,0-0.2-0.3-1.7-0.7c-1.4-0.3-3-0.5-4.9-0.5C8.9,9.5,7.3,9.7,6,10
		C4.5,10.3,4.3,10.6,4.3,10.7z M4.3,10.7L4.3,10.7L4.3,10.7z"/>
	<g>
		<path class="st0" d="M14.1,2c-0.9-0.8-1.9-1.3-3.2-1.3C9.6,0.8,8.6,1.2,7.7,2c-0.6,0.7-1,1.4-1.2,2.2c0,0.3-0.1,0.6-0.1,0.9v1.7
			C7.1,7,7.8,7,8.5,6.8V5.1c0-0.3,0.1-0.6,0.2-1C8.8,4,9,3.8,9.2,3.6c0.5-0.5,1-0.7,1.7-0.7c0.6,0,1.2,0.2,1.7,0.7
			c0.2,0.2,0.4,0.4,0.5,0.6c0.1,0.3,0.2,0.6,0.2,1l0,5c0.7,0.2,1.4,0.2,2.1,0v-5c0-0.3,0-0.6-0.1-0.9C15.1,3.4,14.7,2.7,14.1,2z"/>
		<path class="st2" d="M14.3,10.8c-0.4,0-0.8-0.1-1.2-0.2c-0.2-0.1-0.3-0.2-0.3-0.5l0-5c0-0.2-0.1-0.5-0.2-0.8
			c-0.1-0.1-0.2-0.3-0.4-0.5c-0.4-0.4-0.9-0.6-1.4-0.6c-0.5,0-1,0.2-1.4,0.6C9.3,4.1,9.2,4.2,9.1,4.4C9,4.7,8.9,4.9,8.9,5.1v1.7
			c0,0.2-0.1,0.4-0.3,0.5C7.8,7.5,7,7.5,6.3,7.3C6,7.2,5.9,7.1,5.9,6.8V5.1c0-0.3,0-0.6,0.1-0.9c0.2-0.9,0.6-1.7,1.3-2.5
			c1.1-1,2.2-1.4,3.6-1.4c1.4,0,2.5,0.5,3.5,1.4c0,0,0,0,0,0c0.7,0.8,1.1,1.6,1.3,2.5c0.1,0.3,0.1,0.6,0.1,1v5
			c0,0.2-0.1,0.4-0.3,0.5C15.1,10.7,14.7,10.8,14.3,10.8z M13.7,9.8c0.4,0.1,0.8,0.1,1.2,0V5.1c0-0.3,0-0.5-0.1-0.7
			c-0.1-0.8-0.5-1.4-1.1-2c-0.8-0.8-1.7-1.1-2.8-1.1c-1.1,0-2,0.4-2.9,1.1C7.4,3,7.1,3.6,6.9,4.4c0,0.2-0.1,0.5-0.1,0.8v1.3
			c0.4,0.1,0.7,0.1,1.1,0V5.1C8,4.8,8.1,4.4,8.3,4c0.1-0.3,0.3-0.5,0.6-0.8c0.6-0.6,1.3-0.9,2-0.9c0.8,0,1.5,0.3,2,0.9
			c0.3,0.3,0.4,0.5,0.6,0.8c0.2,0.4,0.2,0.8,0.3,1.1L13.7,9.8z"/>
	</g>
	<path class="st2" d="M8.9,10.7c0-0.1-0.2-0.2-0.4-0.3c-0.3-0.1-0.6-0.2-1-0.1c-0.4,0-0.7,0-1,0.1c0,0-0.1,0-0.1,0
		c-0.2,0.1-0.3,0.2-0.3,0.3c0,0.1,0.1,0.2,0.4,0.3s0.6,0.1,1,0.2c0.4,0,0.7-0.1,1-0.2S8.9,10.8,8.9,10.7z"/>
</g>
</svg>
